<svg aria-hidden="true" style="position:absolute;width:0;height:0;overflow:hidden" xmlns="http://www.w3.org/2000/svg">
  <defs>
    <symbol id="icon-burger" viewBox="0 0 46 32">
      <path stroke-width="2.286" d="M0 2.286h45.714M0 16h45.714M0 29.714h45.714"/>
    </symbol>
    <symbol id="icon-close" viewBox="0 0 32 32">
      <path stroke-width="2" d="m2.518 2 26.963 28M2 29.481 30 2.518"/>
    </symbol>
    <symbol id="icon-logo" viewBox="0 0 127 32">
      <path fill="#fff" style="fill:var(--color2, #fff)" d="M31.36 16.32C31.36 24.98 24.483 32 16 32S.64 24.98.64 16.32 7.517.64 16 .64s15.36 7.02 15.36 15.68z"/>
      <path fill="#d41443" style="fill:var(--color1, #d41443)" d="M11.849.562C4.443 2.805 0 8.635 0 16.004c0 6.023 3.091 11.277 8.179 13.904 2.64 1.346 3.027.384.58-1.474-1.739-1.41-2.061-2.05-2.061-4.421 0-1.666-.386-3.011-.966-3.524-1.159-.961-1.288-3.46-.129-4.357.451-.384.902-1.666.966-2.819.322-4.229 4.894-8.201 9.467-8.201s9.145 3.973 9.466 8.201c.064 1.153.515 2.435.966 2.819 1.159.897 1.03 3.396-.129 4.357-.58.513-.966 1.858-.966 3.524 0 2.371-.322 3.011-2.061 4.421-2.705 2.114-1.932 2.883 1.095 1.025 4.25-2.627 7.406-8.33 7.406-13.391C31.813 5.944 21.252-2.257 11.85.562z"/>
      <path fill="#d41443" style="fill:var(--color1, #d41443)" d="M12.686 7.994c-1.159.513-2.125 1.153-2.125 1.538 0 .705 3.477 1.986 5.474 1.986s5.474-1.281 5.474-1.986c0-.769-3.993-2.499-5.603-2.499-.644.064-2.125.449-3.22.961zM45.851 11.326c-.966.256-1.159 1.089-1.159 5.703v5.382h4.572l-.193-5.574c-.193-5.831-.451-6.279-3.22-5.51zM53.386 11.646c-2.125 1.153-2.898 2.563-2.898 5.318 0 3.78 2.061 5.574 5.86 5.318 2.576-.192 2.833-.384 3.027-1.986s.064-1.73-1.932-1.602c-2.061.192-2.125.064-2.125-2.05s.129-2.243 1.996-2.05c1.546.128 2.125-.128 2.383-1.089.129-.641 0-1.538-.386-1.922-.902-.897-4.25-.897-5.925.064zM61.049 11.71c-.193.513-.258 3.011-.129 5.638l.193 4.741h4.186c3.864 0 4.186-.128 4.379-1.474.193-1.217-.064-1.41-2.06-1.41-1.288 0-2.319-.32-2.319-.641 0-.384.902-.641 1.932-.641 1.481 0 1.932-.256 1.932-1.281s-.451-1.281-1.932-1.281c-1.03 0-1.932-.32-1.932-.641 0-.384.837-.641 1.868-.641 1.804 0 3.027-1.41 2.254-2.627-.58-.961-7.985-.705-8.372.256zM73.993 11.518c-2.125.833-2.962 2.307-3.027 4.998-.065 4.613 1.803 6.215 6.633 5.767 1.868-.128 2.189-.448 2.189-1.794 0-1.41-.257-1.602-2.061-1.41-1.546.128-2.125-.064-2.447-1.089-.58-1.986.644-3.588 2.705-3.588 1.224 0 1.868-.384 1.996-1.217.451-2.05-2.833-3.011-5.989-1.666zM81.914 11.262c-.323.256-.515 2.883-.515 5.831v5.382l2.06-.192c1.61-.128 2.19-.577 2.512-1.794l.386-1.602.515 1.73c.387 1.474.837 1.794 2.512 1.794 2.769 0 3.091-.448 1.932-2.691-.708-1.41-.837-2.114-.322-2.627.837-.833.902-3.652.129-4.87-.644-1.025-8.371-1.858-9.208-.961zm5.28 3.46c0 .705-.257 1.281-.644 1.281-.322 0-.644-.577-.644-1.281s.322-1.281.644-1.281c.387 0 .644.577.644 1.281zM93.441 11.326c-.258.192-.451 2.819-.451 5.767v5.318h4.186c4.057 0 4.186-.064 4.186-1.602 0-1.346-.322-1.602-1.932-1.602-1.03 0-1.932-.32-1.932-.641 0-.384.708-.641 1.61-.641 1.159 0 1.61-.32 1.61-1.281s-.451-1.281-1.61-1.281c-.902 0-1.61-.32-1.61-.641 0-.384.902-.641 1.932-.641 1.61 0 1.932-.256 1.932-1.602 0-1.538-.193-1.602-3.735-1.602-2.061 0-3.992.192-4.186.448zM106.45 11.262c-1.16.32-4.122 8.842-3.542 10.252.515 1.281 3.413 1.153 4.186-.192.579-1.089.644-1.089 1.803 0 1.482 1.281 4.701 1.474 4.701.256 0-.384-.644-2.947-1.482-5.574-1.288-4.229-1.674-4.806-3.027-4.934-.902 0-2.061.064-2.64.192zm1.803 5.831c-.193.641-.322.256-.322-.769 0-1.089.129-1.538.322-1.153.129.448.129 1.346 0 1.922zM115.723 11.326c-.58.192-.837 1.986-.837 5.703v5.382h1.868c1.61 0 1.932-.32 2.189-1.794.257-1.666.257-1.666.772-.32.258.833.902 1.474 1.352 1.474.515 0 1.224-.641 1.546-1.474.515-1.346.58-1.346.58.384.065 1.602.257 1.794 2.061 1.602l1.996-.192.065-5.318c.129-4.934.064-5.318-1.288-5.638-2.061-.513-3.799.705-4.379 3.076l-.451 2.114-.708-2.243c-.902-3.011-2.254-3.78-4.765-2.755zM9.016 11.967c-.193.256-.386 1.089-.386 1.922 0 1.474.064 1.474 7.406 1.474s7.406 0 7.406-1.474c0-2.178-.58-2.435-2.64-1.41-2.318 1.217-7.213 1.217-9.531 0-1.03-.513-1.996-.705-2.254-.513zM7.148 17.669c-1.03 1.089.708 1.538 5.731 1.538h5.409v2.243c0 1.217.322 2.243.644 2.243.386 0 .644-.961.644-2.178 0-2.114.129-2.243 2.576-2.435 1.417-.128 2.576-.513 2.576-.833 0-.705-16.872-1.281-17.581-.577z"/>
      <path fill="#d41443" style="fill:var(--color1, #d41443)" d="M8.629 23.308c0 3.524 1.224 4.229 7.406 4.229s7.406-.705 7.406-4.229c0-1.538-.322-2.178-.966-2.178-.58 0-.966.577-.966 1.538 0 3.588-4.894 3.908-5.603.384-.322-1.858-.515-1.922-3.8-1.922H8.629v2.178zM12.622 30.548c.386 2.05 6.955 1.858 6.955-.128 0-.705-.837-.961-3.606-.961-3.027 0-3.542.192-3.349 1.089z"/>
    </symbol>
    <symbol id="facebook" width="34" height="34" fill="none" xmlns="http://www.w3.org/2000/svg">
      <path d="M17 34c9.389 0 17-7.611 17-17S26.389 0 17 0 0 7.611 0 17s7.611 17 17 17Z"/>
      <path d="M21.724 16.98H18.95V27.2h-4.202V16.98H12.75V13.39h1.998v-2.324c0-1.662.785-4.265 4.24-4.265l3.112.013V10.3h-2.258c-.37 0-.891.187-.891.98v2.113h3.14l-.367 3.588Z" fill="#fff"/>
    </symbol>
    <symbol id="telegram" width="34" height="34" fill="none" xmlns="http://www.w3.org/2000/svg">
      <circle cx="17" cy="17" r="17"/>
      <path d="m13.671 19.524-.337 4.43c.483 0 .692-.194.943-.426l2.263-2.02 4.69 3.207c.861.447 1.467.211 1.7-.739l3.078-13.464v-.001c.274-1.187-.46-1.651-1.297-1.36L6.614 15.617c-1.235.448-1.217 1.09-.21 1.382l4.627 1.343 10.746-6.276c.506-.313.966-.14.588.173l-8.693 7.285Z" fill="#fff"/>
    </symbol>
    <symbol id="github" width="34" height="34" fill="none" xmlns="http://www.w3.org/2000/svg">
      <circle cx="17" cy="17" r="17"/>
      <path d="M17 7C11.507 7 7 11.507 7 17c0 4.687 3.289 8.945 7.656 10v-3.308c-.433.094-.83.097-1.271-.033-.591-.174-1.071-.568-1.428-1.168-.227-.383-.63-.8-1.05-.769l-.103-1.167c.909-.078 1.694.554 2.16 1.337.208.349.447.553.753.643.295.088.613.046.983-.085.093-.741.433-1.018.69-1.41-2.605-.388-3.643-1.77-4.055-2.86-.546-1.449-.253-3.258.712-4.402.019-.022.053-.08.04-.12-.443-1.338.096-2.444.116-2.561.511.15.594-.152 2.22.835l.28.169c.118.07.08.03.198.02A8.484 8.484 0 0 1 17 11.828c.71.009 1.42.11 2.127.302l.091.01c-.008-.002.025-.006.08-.039 2.03-1.23 1.957-.828 2.502-1.005.02.118.551 1.242.113 2.562-.059.182 1.76 1.848.752 4.522-.412 1.09-1.45 2.473-4.054 2.861.334.51.735.78.733 1.83V27C23.71 25.945 27 21.687 27 17c0-5.493-4.507-10-10-10Z" fill="#fff"/>
    </symbol>
    <symbol id="arrow" width="7" height="10" xmlns="http://www.w3.org/2000/svg">
      <path d="M1.387 0a1 1 0 0 0-.698.316A1 1 0 0 0 .74 1.73L4.238 5l-3.5 3.27a1 1 0 0 0-.05 1.414 1 1 0 0 0 1.415.046l4.28-4a1 1 0 0 0 0-1.46l-4.28-4A1 1 0 0 0 1.387 0Z"/>
    </symbol>
    <symbol id="logo" version="1.0" xmlns="http://www.w3.org/2000/svg" width="113" height="25" viewBox="0 0 423 93">
      <path d="M22.2 15c-6.9 2.8-4.6 13.2 6.7 30.5l2 3.1-3.3 4.7c-4.1 5.8-8.7 15.8-9.3 20.6-.7 5.3 2 8.4 7.5 8.3 4.8-.1 14.2-4 21-8.9 2.6-1.8 5-3.3 5.4-3.3.4 0 3.3 1.8 6.4 4 10.1 7.1 22.2 10.1 25.8 6.4 3.7-3.6 1.3-13.6-5.9-24.3C76 52.4 74 49 74 48.6c0-.5 2-3.8 4.4-7.5 5.8-8.8 8-15 7.3-20.2-.7-5.4-1.9-6.4-7.1-6.3-4.8.1-13 3.6-21.1 8.9l-5.4 3.7-3.3-2.5c-4.8-3.6-16.7-9.3-20.8-10-1.9-.3-4.5-.2-5.8.3zm18.1 10.2 7.8 5.1-6.7 6.8c-3.7 3.7-7.1 6.6-7.6 6.3-.4-.3-2.6-3.6-4.8-7.3-4.4-7.4-6.5-13.4-5.6-15.8 1.1-2.8 8.4-.7 16.9 4.9zm40.5-3.3c.6 3.9-4.5 14.8-10.3 21.9-.4.4-13.5-12.4-13.5-13.1 0-1.2 9.6-7.1 15-9.4 6.5-2.7 8.4-2.6 8.8.6zM59.6 40.7c3.5 3.6 6.4 7.1 6.4 7.7 0 .7-2.9 4-6.5 7.6-6.3 6.2-6.5 6.3-9.1 5C47.6 59.5 38 49.4 38 48c0-1.3 12.8-14 14.1-14 .6 0 4 3 7.5 6.7zM45.8 68.2c-7.7 5.9-20.6 10.5-22.2 7.9-1.1-1.7 2.4-10.8 6.5-17.1l4-6.3 7 6.9 6.9 6.9-2.2 1.7zm28-10.5C78.1 64.4 81 71 81 74.2c0 2.4-.4 2.8-3 2.8-3.2 0-14.8-5.4-19-8.8l-2.5-2.1 6.5-6.4c3.6-3.6 6.8-6.6 7.1-6.6.4-.1 2.1 2 3.7 4.6zM203.8 25.1c-1.5.8-1.8 2.5-1.8 9.3 0 10.1.6 10.8 8.7 10.4 4.6-.2 5.9-.7 6.1-2.1.3-1.4-.5-1.7-5.2-1.7H206v-6.4c0-6 .2-6.4 2.5-7 1.4-.4 3.6-.4 4.9 0 2.7.6 4.6-1.4 2.5-2.7-1.9-1.2-10-1.1-12.1.2zM229.5 24.9l-5 .6V35c0 9.1.1 9.5 2.3 9.8 1.9.3 2.2-.1 2.2-3.2 0-4.9 3.3-5 6.1-.1 1.2 2 2.9 3.5 4 3.5 2.3 0 2.3-.3.4-3.9-1.3-2.6-1.3-3 0-4.1 2.3-1.9 2-10.7-.4-12-1.1-.5-2.6-.9-3.3-.8-.7 0-3.5.4-6.3.7zm7.3 6.2c-.3 2.8-.7 3.2-4 3.5-3.7.3-3.8.2-3.8-3.1 0-3.4.1-3.5 4.1-3.5 3.9 0 4 .1 3.7 3.1zM253.9 26.7c-1.3 3.4-5.9 16.5-5.9 17 0 1.1 4.2 0 4.6-1.2.9-2.4 8.1-2 9.4.5.9 1.6 5 3 5 1.7 0-.2-1.6-4.7-3.5-10.1-1.9-5.4-3.5-10-3.5-10.2 0-.2-1.1-.4-2.5-.4-1.8 0-2.8.8-3.6 2.7zm5.1 6.9c1.2 3.1.6 4.4-2.1 4.4-2 0-2.3-1-1.3-4.8.8-2.9 2.2-2.8 3.4.4zM273 25.4c0 1.7 2.2 2.6 6.1 2.6 1.6 0 2.9.3 2.9.6s-2 3.1-4.5 6.3c-2.5 3.1-4.5 6.7-4.5 7.9 0 2.1.5 2.2 7.5 2.2 6.8 0 7.5-.2 7.5-2 0-1.7-.7-2-4.5-2-2.5 0-4.5-.3-4.5-.7 0-.4 2-3.3 4.5-6.4 2.5-3.2 4.5-6.7 4.5-7.8 0-1.9-.6-2.1-7.5-2.1-5.7 0-7.5.3-7.5 1.4zM306.1 29c-1.2 2.7-2.4 5-2.6 5-.3 0-1.4-1.8-2.5-3.9-2.2-4.5-3.1-5.3-4.8-4.2-.8.5-.4 2.2 1.5 6.1 1.4 3 2.9 7.1 3.2 9 .9 5.1 3.4 5 4.7-.2.6-2.4 2.3-7.1 3.7-10.6 2.3-5.7 2.4-6.2.7-6.2-1.2 0-2.5 1.6-3.9 5zM397 57c0 .6-1.1 1.5-2.5 2-3.7 1.4-5.3 5.5-3.4 8.8 1.1 2.1 2.4 2.8 5.9 3.2 3.7.4 4.5.9 4.5 2.5 0 1.7-.8 2-5.2 2.3-6 .3-7.5 2.8-2.3 3.9 1.7.3 3.3.9 3.5 1.4.9 1.4 7.5-3.2 8.1-5.6 1.3-5.1-2-8.5-8.2-8.5-1.7 0-2.4-.5-2.4-2 0-2 .3-2.1 6.5-2.4 2.7-.1 3.3-3.6.7-3.6-1.1 0-2.2-.7-2.6-1.5-.6-1.7-2.6-2-2.6-.5zM110.2 60.2c-.8.8-1.2 4.6-1.2 10.6v9.4l6.6-.4c8.6-.5 10.4-2.4 10.4-10.9 0-7.9-1.9-9.9-9.3-9.9-2.9 0-5.8.5-6.5 1.2zm10.2 3.4c1.6 1.5 2.2 7.8 1 10.8-.4 1.1-1.9 1.6-4.5 1.6H113v-6.3c0-3.5.3-6.7.7-7 1.2-1.3 5.1-.7 6.7.9zM134 68.9v9.9l3.1.6c1.7.3 5.1.6 7.5.6 3.7 0 4.4-.3 4.4-2 0-1.8-.7-2-5.5-2-5.2 0-5.5-.1-5.5-2.5 0-2.3.4-2.5 4-2.5 3.3 0 4-.3 4-2s-.7-2-4.1-2c-3.6 0-4-.2-3.7-2.3.3-1.9 1-2.2 5.6-2.5 3.7-.2 5.2-.7 5.2-1.8s-1.6-1.4-7.5-1.4H134v9.9zM155.6 61.2c.3 1.3 2 6 3.6 10.5 2.6 7.1 3.3 8.3 5.3 8.3 1.9 0 2.7-1.2 5.3-8.8 1.7-4.8 3.4-9.5 3.8-10.5.6-1.5.3-1.8-1.6-1.5-1.9.2-2.8 1.6-4.5 6.7-2 6.1-4.5 9.2-4.5 5.7 0-.8-.9-4-2.1-7.1-1.5-4.1-2.5-5.5-4-5.5-1.6 0-1.9.4-1.3 2.2zM181 69.6v10.7l6.4-.5c3.5-.3 6.9-.9 7.5-1.2 2.2-1.4-.1-2.6-5-2.6-4.5 0-4.9-.2-4.9-2.4 0-2.2.5-2.5 4.3-2.8 2.9-.2 4.2-.8 4.2-1.8 0-1.1-1.3-1.6-4.3-1.8-3.8-.3-4.3-.6-4-2.5.3-1.9.9-2.2 5.3-2.3 3.8-.1 5.1-.5 5.3-1.7.3-1.5-.7-1.7-7.2-1.7H181v10.6zM204.2 69.2l.3 10.3 6.8.3c6.2.3 6.7.1 6.7-1.8 0-1.7-.6-2-5-2h-5v-8.5c0-7.9-.1-8.5-2-8.5-2 0-2.1.5-1.8 10.2zM226 60.9c-.5 1.1-1 5.1-1 9 0 8.7 1.1 10.1 8.4 10.1 7.9 0 9.1-1.3 9.1-10.3 0-9.7-.9-10.7-9.1-10.7-5.2 0-6.5.3-7.4 1.9zm12.1 6c.3 2.4.4 5.4.1 6.7-.4 2.1-1 2.4-4.8 2.4H229v-6.3c0-3.5.3-6.7.7-7.1.4-.4 2.3-.6 4.3-.4 3.3.3 3.5.5 4.1 4.7zM251 69.6c0 9.5.2 10.5 1.8 10.2 1-.2 1.8-1.4 2-3.1.3-2.3.8-2.7 3.7-2.7 1.9 0 4.5-.4 5.9-1 2.3-.9 2.6-1.5 2.6-6.3 0-2.9-.5-5.8-1.2-6.5-.7-.7-4-1.2-8-1.2H251v10.6zm10.4-7c1 .4 1.6 1.8 1.6 4 0 3.3-.1 3.4-4 3.4s-4-.1-4-3.3c0-1.9.3-3.7.7-4 .8-.9 3.6-.9 5.7-.1zM275.7 59.7c-.9.8-.9 11.5-.1 16.5l.7 3.8h6.8c6.2 0 6.9-.2 6.9-2 0-1.7-.7-2-5-2-4.7 0-5-.2-5-2.5s.4-2.5 4-2.5c3.3 0 4-.3 4-2s-.7-2-4.1-2c-3.6 0-4-.2-3.7-2.3.3-1.9 1-2.2 5.1-2.5 3.3-.2 4.7-.7 4.7-1.8s-1.5-1.4-6.8-1.4c-3.8 0-7.2.3-7.5.7zM298 69.5c0 9.7.1 10.5 1.9 10.5 1.5 0 2.1-.8 2.3-3.3.2-2.4.8-3.3 2.5-3.5 1.8-.3 2.7.5 4 3.2 1 2.2 2.4 3.6 3.5 3.6 2 0 2.3-1.2.8-4.1-.8-1.4-.7-2.5.5-4.1 2.1-3.1 1.9-9.1-.3-11.1-1.3-1.2-3.7-1.7-8.5-1.7H298v10.5zm11.1-6.5c2.2 1.2 2.5 4.3.7 5.6-.7.5-2.6.9-4.3.9-2.4 0-3.1-.5-3.3-2.3-.7-4.9 2.2-6.6 6.9-4.2zM324.2 59.8c-2 1.3-2.6 7.4-.9 9.6 1 1.4 2.6 1.9 6.1 1.9 4.2 0 4.6.3 4.6 2.4s-.4 2.3-5.5 2.3c-4.3 0-5.5.3-5.5 1.6s1.2 1.5 7.1 1.1c7.4-.4 8.9-1.3 8.9-5.3 0-3.6-2.3-5.6-7.3-6.1-2.6-.3-5-1-5.3-1.5-1.2-1.9 1.9-3.8 6.2-3.8 3.2 0 4.4-.4 4.4-1.5 0-1.2-1.3-1.5-5.7-1.5-3.2 0-6.4.4-7.1.8zM346 60.5c0 1 1 1.5 3.3 1.5 1.8 0 4.2.7 5.3 1.5 1.8 1.4 1.7 1.7-3.4 6.2-3.9 3.6-5.2 5.5-5.2 7.5 0 2.8 0 2.8 7 2.8 6.3 0 7-.2 7-2 0-1.7-.7-2-4.7-2h-4.8l4.8-4.4c5-4.7 5.7-6.8 3.1-10.4-1.2-1.8-2.5-2.2-7-2.2-4.1 0-5.4.4-5.4 1.5zM378 62.2c-1.1 1.8-2 3.6-2 4 0 .5-.9.8-1.9.8-1.5 0-2.1-.8-2.3-3.2-.2-2.2-.9-3.4-2-3.6-1.6-.3-1.8.7-1.8 9.8 0 9.1.2 10.1 1.8 9.8 1.2-.2 1.8-1.5 2-4.6.4-5.6 2.7-5.4 6 .6 1.5 2.7 3 4.2 4.3 4.2 1.8 0 1.8-.3-.7-5.2l-2.6-5.2 2.6-5.3c2.5-5.1 2.5-5.3.6-5.3-1.2 0-2.8 1.3-4 3.2z"/>
    </symbol>
  </defs>
</svg>
